<?xml version="1.0" standalone="no"?><!-- Generator: Gravit.io --><svg xmlns="http://www.w3.org/2000/svg" xmlns:xlink="http://www.w3.org/1999/xlink" style="isolation:isolate" viewBox="0 0 800 800" width="800" height="800"><defs><clipPath id="_clipPath_ivXKUMRPU8F7z61Jt1tyCk9oqYR4h6nE"><rect width="800" height="800"/></clipPath></defs><g clip-path="url(#_clipPath_ivXKUMRPU8F7z61Jt1tyCk9oqYR4h6nE)"><path d=" M 0 400 C 0 179.234 179.234 0 400 0 C 620.766 0 800 179.234 800 400 C 800 620.766 620.766 800 400 800 C 179.234 800 0 620.766 0 400 Z  M 395.15 160.25 L 454.65 160.25 L 454.65 488.55 Q 454.65 529.85 447.213 558.9 Q 439.775 587.95 417.108 605.45 Q 400.817 618.05 375.34 629.6 Q 349.863 641.15 307.912 646.75 L 300.217 597.05 Q 333.088 591.45 352.297 582.7 Q 371.507 573.95 380.903 561.35 Q 390.3 548.75 392.725 530.55 Q 395.15 512.35 395.15 487.85 L 395.15 160.25 Z " fill-rule="evenodd" fill="rgb(90,111,145)" style="mix-blend-mode:multiply;"/></g></svg>